<svg width="111" height="30" viewBox="0 0 111 30" fill="none" xmlns="http://www.w3.org/2000/svg">
<path d="M0.64 0.999998H12.28V5H5.04V12.8H10.72V16.8H5.04V29H0.64V0.999998ZM14.39 0.999998H18.79V29H14.39V0.999998ZM25.5253 5H20.9253V0.999998H34.5253V5H29.9253V29H25.5253V5ZM42.7394 29.4C40.606 29.4 38.9794 28.8 37.8594 27.6C36.7394 26.3733 36.1794 24.6267 36.1794 22.36V7.64C36.1794 5.37333 36.7394 3.64 37.8594 2.44C38.9794 1.21333 40.606 0.599998 42.7394 0.599998C44.8727 0.599998 46.4994 1.21333 47.6194 2.44C48.7394 3.64 49.2994 5.37333 49.2994 7.64V10.04H45.1394V7.36C45.1394 5.52 44.3794 4.6 42.8594 4.6C41.3394 4.6 40.5794 5.52 40.5794 7.36V22.68C40.5794 24.4933 41.3394 25.4 42.8594 25.4C44.3794 25.4 45.1394 24.4933 45.1394 22.68V17.2H42.9394V13.2H49.2994V22.36C49.2994 24.6267 48.7394 26.3733 47.6194 27.6C46.4994 28.8 44.8727 29.4 42.7394 29.4ZM58.4844 29.4C56.3244 29.4 54.671 28.7867 53.5244 27.56C52.3777 26.3333 51.8044 24.6 51.8044 22.36V7.64C51.8044 5.4 52.3777 3.66667 53.5244 2.44C54.671 1.21333 56.3244 0.599998 58.4844 0.599998C60.6444 0.599998 62.2977 1.21333 63.4444 2.44C64.591 3.66667 65.1644 5.4 65.1644 7.64V22.36C65.1644 24.6 64.591 26.3333 63.4444 27.56C62.2977 28.7867 60.6444 29.4 58.4844 29.4ZM58.4844 25.4C60.0044 25.4 60.7644 24.48 60.7644 22.64V7.36C60.7644 5.52 60.0044 4.6 58.4844 4.6C56.9644 4.6 56.2044 5.52 56.2044 7.36V22.64C56.2044 24.48 56.9644 25.4 58.4844 25.4ZM71.4619 0.999998H77.4219L81.9819 29H77.5819L76.7819 23.44V23.52H71.7819L70.9819 29H66.9019L71.4619 0.999998ZM76.2619 19.72L74.3019 5.88H74.2219L72.3019 19.72H76.2619ZM84.1166 0.999998H88.5166V25H95.7566V29H84.1166V0.999998ZM103.587 29.4C101.453 29.4 99.8399 28.8 98.7466 27.6C97.6532 26.3733 97.1066 24.6267 97.1066 22.36V20.76H101.267V22.68C101.267 24.4933 102.027 25.4 103.547 25.4C104.293 25.4 104.853 25.1867 105.227 24.76C105.627 24.3067 105.827 23.5867 105.827 22.6C105.827 21.4267 105.56 20.4 105.027 19.52C104.493 18.6133 103.507 17.5333 102.067 16.28C100.253 14.68 98.9866 13.24 98.2666 11.96C97.5466 10.6533 97.1866 9.18667 97.1866 7.56C97.1866 5.34667 97.7466 3.64 98.8666 2.44C99.9866 1.21333 101.613 0.599998 103.747 0.599998C105.853 0.599998 107.44 1.21333 108.507 2.44C109.6 3.64 110.147 5.37333 110.147 7.64V8.8H105.987V7.36C105.987 6.4 105.8 5.70667 105.427 5.28C105.053 4.82667 104.507 4.6 103.787 4.6C102.32 4.6 101.587 5.49333 101.587 7.28C101.587 8.29333 101.853 9.24 102.387 10.12C102.947 11 103.947 12.0667 105.387 13.32C107.227 14.92 108.493 16.3733 109.187 17.68C109.88 18.9867 110.227 20.52 110.227 22.28C110.227 24.5733 109.653 26.3333 108.507 27.56C107.387 28.7867 105.747 29.4 103.587 29.4Z" fill="#D21312"/>
</svg>
